HIERARCHY
ROOT Hips
{
 OFFSET 0.000000 0.000000 0.000000
 CHANNELS 6 Xposition Yposition Zposition Yrotation Xrotation Zrotation
 JOINT Chest
 {
  OFFSET 0.000000 9.588913 -0.003946
  CHANNELS 3 Yrotation Xrotation Zrotation
  JOINT Chest2
  {
   OFFSET 0.000000 9.541882 0.008053
   CHANNELS 3 Yrotation Xrotation Zrotation
   JOINT Chest3
   {
    OFFSET 0.000000 9.501360 0.000000
    CHANNELS 3 Yrotation Xrotation Zrotation
    JOINT Chest4
    {
     OFFSET 0.000000 9.491660 0.000000
     CHANNELS 3 Yrotation Xrotation Zrotation
     JOINT Neck
     {
      OFFSET 0.000000 14.331917 0.000000
      CHANNELS 3 Yrotation Xrotation Zrotation
      JOINT Head
      {
       OFFSET 0.000000 8.884799 0.017034
       CHANNELS 3 Yrotation Xrotation Zrotation
       End Site
       {
        OFFSET 0.000000 16.896195 0.008993
       }
      }
     }
     JOINT RightCollar
     {
      OFFSET -2.923010 9.499495 0.000000
      CHANNELS 3 Yrotation Xrotation Zrotation
      JOINT RightShoulder
      {
       OFFSET -13.795216 0.000000 0.000000
       CHANNELS 3 Yrotation Xrotation Zrotation
       JOINT RightElbow
       {
        OFFSET -30.272209 0.000000 0.000000
        CHANNELS 3 Yrotation Xrotation Zrotation
        JOINT RightWrist
        {
         OFFSET -24.478199 0.000000 0.000000
         CHANNELS 3 Yrotation Xrotation Zrotation
         End Site
         {
          OFFSET -18.090752 0.000000 0.000000
         }
        }
       }
      }
     }
     JOINT LeftCollar
     {
      OFFSET 2.923010 9.499495 0.000000
      CHANNELS 3 Yrotation Xrotation Zrotation
      JOINT LeftShoulder
      {
       OFFSET 13.795216 0.000000 0.000000
       CHANNELS 3 Yrotation Xrotation Zrotation
       JOINT LeftElbow
       {
        OFFSET 30.272209 0.000000 0.000000
        CHANNELS 3 Yrotation Xrotation Zrotation
        JOINT LeftWrist
        {
         OFFSET 24.478199 0.000000 0.000000
         CHANNELS 3 Yrotation Xrotation Zrotation
         End Site
         {
          OFFSET 18.090752 0.000000 0.000000
         }
        }
       }
      }
     }
    }
   }
  }
 }
 JOINT RightHip
 {
  OFFSET -7.826875 0.019532 0.001973
  CHANNELS 3 Yrotation Xrotation Zrotation
  JOINT RightKnee
  {
   OFFSET 0.000000 -40.546152 -0.001885
   CHANNELS 3 Yrotation Xrotation Zrotation
   JOINT RightAnkle
   {
    OFFSET 0.000000 -39.417092 -0.003189
    CHANNELS 3 Yrotation Xrotation Zrotation
    JOINT RightToe
    {
     OFFSET 0.000000 -7.579396 17.243563
     CHANNELS 3 Yrotation Xrotation Zrotation
     End Site
     {
      OFFSET 0.000000 -1.500329 6.694466
     }
    }
   }
  }
 }
 JOINT LeftHip
 {
  OFFSET 7.826875 0.019532 0.001973
  CHANNELS 3 Yrotation Xrotation Zrotation
  JOINT LeftKnee
  {
   OFFSET 0.000000 -40.546152 -0.001885
   CHANNELS 3 Yrotation Xrotation Zrotation
   JOINT LeftAnkle
   {
    OFFSET 0.000000 -39.417092 -0.003189
    CHANNELS 3 Yrotation Xrotation Zrotation
    JOINT LeftToe
    {
     OFFSET 0.000000 -7.579396 17.243563
     CHANNELS 3 Yrotation Xrotation Zrotation
     End Site
     {
      OFFSET 0.000000 -1.500329 6.694466
     }
    }
   }
  }
 }
}
MOTION
Frames: 7
Frame Time: 0.008333
-3.951206 89.169509 14.048160 -58.330369 -8.531224 -0.678648 1.566981 3.420589 1.083204 0.875810 1.956906 0.602188 1.098134 2.444668 0.757517 0.875810 1.956906 0.602188 -24.637867 23.691280 2.635512 -31.081163 3.596776 8.891177 -1.209961 2.563949 -3.230382 -8.142092 -0.579815 89.145295 6.443033 12.780714 0.147232 15.855790 -8.200142 2.518934 -4.204364 1.478610 0.206019 10.222016 2.103878 -89.998947 -1.194675 -7.595966 -3.853929 -5.287134 -6.168456 3.293720 -12.690221 8.770554 -1.559210 3.692819 3.043906 0.921683 -2.665752 -3.235598 -0.131633 -0.021938 0.007434 -0.009003 14.766255 9.809369 4.683010 -13.520874 2.389876 1.103406 -8.780730 -5.005853 -1.994390 0.026770 0.019576 0.006675
-3.954058 89.169693 14.043388 -58.390649 -8.529920 -0.678283 1.565521 3.419944 1.089482 0.875434 1.956648 0.604754 1.097678 2.444339 0.760722 0.875434 1.956648 0.604754 -24.622166 23.690953 2.636787 -31.058620 3.592118 8.889075 -1.206885 2.570860 -3.227605 -8.152946 -0.593702 89.143112 6.453474 12.808112 0.142095 15.880450 -8.197911 2.504280 -4.197114 1.479403 0.196344 10.231437 2.112784 -89.989249 -1.202079 -7.594446 -3.863595 -5.283980 -6.165060 3.291948 -12.664511 8.758196 -1.555047 3.705472 3.052551 0.927210 -2.651786 -3.233699 -0.138739 -0.022214 0.006924 -0.008466 14.795566 9.818485 4.679404 -13.513408 2.390816 1.111442 -8.710153 -5.011565 -1.997451 0.030031 0.017045 0.007957
-3.956885 89.170007 14.039421 -58.444111 -8.528048 -0.675086 1.562425 3.418180 1.093606 0.874283 1.955752 0.607095 1.096250 2.443215 0.763641 0.874283 1.955752 0.607095 -24.602745 23.689375 2.638872 -31.030925 3.584896 8.887175 -1.207420 2.577830 -3.224466 -8.165045 -0.604163 89.142080 6.462555 12.842958 0.135397 15.908732 -8.195657 2.489151 -4.191224 1.482443 0.186245 10.237161 2.120664 -89.980364 -1.210239 -7.590695 -3.870743 -5.276146 -6.160637 3.291662 -12.646746 8.745144 -1.555101 3.720149 3.061791 0.933111 -2.640431 -3.233338 -0.145233 -0.022966 0.006844 -0.008412 14.818092 9.824154 4.678643 -13.508637 2.392270 1.120521 -8.682587 -5.016668 -2.001456 0.029327 0.013192 0.005817
-3.959778 89.170425 14.036377 -58.496746 -8.527475 -0.668214 1.559744 3.415729 1.096037 0.873497 1.954473 0.609331 1.095276 2.441613 0.766429 0.873497 1.954473 0.609331 -24.581401 23.687567 2.639481 -30.999950 3.576587 8.883009 -1.208286 2.587098 -3.223714 -8.174685 -0.612235 89.140945 6.471059 12.878492 0.128278 15.937481 -8.193688 2.472619 -4.186448 1.487233 0.174914 10.242628 2.130285 -89.972198 -1.220651 -7.582183 -3.875335 -5.266758 -6.156358 3.291341 -12.626448 8.733154 -1.560061 3.732965 3.071043 0.939782 -2.627747 -3.234659 -0.150870 -0.023562 0.007814 -0.008616 14.839720 9.827760 4.683823 -13.506038 2.394451 1.129038 -8.707347 -5.021722 -2.007998 0.024570 0.007663 0.001755
-3.962648 89.170825 14.033392 -58.549726 -8.526004 -0.661779 1.558180 3.411834 1.100222 0.873175 1.952579 0.611587 1.094883 2.439241 0.769242 0.873175 1.952579 0.611587 -24.558266 23.685473 2.638163 -30.965744 3.567085 8.876057 -1.206660 2.598411 -3.225652 -8.181610 -0.620123 89.139311 6.477757 12.912803 0.121660 15.961917 -8.191218 2.456553 -4.184077 1.491220 0.163181 10.250301 2.143216 -89.964946 -1.231392 -7.569290 -3.877156 -5.257662 -6.154637 3.289552 -12.600900 8.722271 -1.566205 3.744184 3.076532 0.948357 -2.609882 -3.234299 -0.155781 -0.023215 0.008849 -0.009184 14.864748 9.832917 4.684179 -13.503921 2.395992 1.136478 -8.704532 -5.026357 -2.012404 0.022424 0.003202 0.000383
-3.965152 89.171112 14.030324 -58.599329 -8.522311 -0.656042 1.556160 3.406588 1.105883 0.872287 1.949919 0.613801 1.093779 2.435912 0.771999 0.872287 1.949919 0.613801 -24.533359 23.681929 2.635745 -30.928625 3.554998 8.867416 -1.203673 2.610981 -3.228321 -8.184480 -0.628328 89.137845 6.482808 12.948885 0.115544 15.980045 -8.187400 2.440452 -4.184893 1.494910 0.151740 10.263171 2.158492 -89.958100 -1.242159 -7.555636 -3.879689 -5.249004 -6.154464 3.287302 -12.575580 8.711454 -1.571139 3.755866 3.077877 0.956608 -2.595882 -3.231826 -0.158658 -0.022653 0.009756 -0.011033 14.889950 9.838506 4.679390 -13.500787 2.395526 1.142145 -8.673958 -5.029792 -2.014684 0.022935 0.000246 0.001572
-3.967260 89.171286 14.027590 -58.645301 -8.518282 -0.648745 1.552859 3.401242 1.110617 0.870555 1.946934 0.615892 1.091620 2.432179 0.774596 0.870555 1.946934 0.615892 -24.507104 23.675809 2.632684 -30.889382 3.539043 8.857821 -1.199521 2.624226 -3.228280 -8.180536 -0.636698 89.133071 6.485544 12.986190 0.109183 15.996780 -8.182862 2.421338 -4.184579 1.501059 0.139409 10.278944 2.172126 -89.950400 -1.252900 -7.544560 -3.885528 -5.241379 -6.155437 3.286031 -12.549562 8.699911 -1.576019 3.766664 3.079913 0.963694 -2.590733 -3.229926 -0.160237 -0.022531 0.010819 -0.013273 14.915371 9.842100 4.677444 -13.497087 2.394371 1.145850 -8.667436 -5.032664 -2.017278 0.021563 -0.002745 0.001874
